<?xml version="1.0" encoding="UTF-8"?>
<svg version="1.1" xmlns="http://www.w3.org/2000/svg" width="512" height="512">
<path d="M0 0 C0.92203217 0.00054382 1.84406433 0.00108765 2.79403687 0.00164795 C25.60311637 0.06331478 47.00063677 3.10010769 68.6875 10.375 C69.53586426 10.65827148 70.38422852 10.94154297 71.25830078 11.23339844 C91.35474986 18.0926428 110.55601049 27.7935238 127.6875 40.375 C128.26226074 40.79571777 128.83702148 41.21643555 129.42919922 41.64990234 C174.24062589 74.83754675 205.97899998 125.01420692 214.6875 180.375 C214.9491394 181.93710205 214.9491394 181.93710205 215.21606445 183.53076172 C216.8698337 194.3702604 217.04445081 205.05487032 217 216 C216.99726578 217.3946347 216.99726578 217.3946347 216.99447632 218.81744385 C216.95023487 232.20660685 216.61352939 245.25782436 213.6875 258.375 C213.51589355 259.18372559 213.34428711 259.99245117 213.16748047 260.82568359 C200.98932467 317.21087145 167.21235117 367.31724808 118.64990234 398.69140625 C99.86695619 410.42682233 99.86695619 410.42682233 93.6875 409.375 C89.43717337 405.7591523 87.06620649 401.93172767 84.6875 397 C84.34501221 396.29738037 84.00252441 395.59476074 83.6496582 394.87084961 C75.33959121 377.39523876 72.06740351 359.24731701 72.1875 340 C72.18859772 339.25987671 72.18969543 338.51975342 72.19082642 337.75720215 C72.26047105 321.08582383 74.5517843 304.90534759 77.32958984 288.49975586 C77.92138578 284.98652255 78.49156457 281.46979847 79.0625 277.953125 C79.17276016 277.27458466 79.28302032 276.59604431 79.3966217 275.89694214 C79.61538462 274.55051752 79.83401926 273.20407205 80.05252075 271.85760498 C80.37108176 269.89908935 80.69223868 267.94099652 81.01342773 265.98291016 C82.61265206 256.13826768 83.91688688 246.31913932 84.6875 236.375 C84.74389648 235.6521582 84.80029297 234.92931641 84.85839844 234.18457031 C85.22717395 229.25083399 85.49005888 224.31834069 85.6875 219.375 C85.74164063 218.1684375 85.79578125 216.961875 85.8515625 215.71875 C86.35342851 194.73162598 83.08996083 172.7655014 69.87280273 155.98461914 C57.58092911 140.2167219 53.89677439 122.09702569 52.46630859 102.61206055 C51.34767268 88.5254906 46.66502261 76.44707374 36.10546875 66.75 C33.83015629 64.5436364 33.67659837 63.27870226 33.3125 60.0625 C33.79027036 55.36442476 35.17911481 54.4156005 38.6875 51.375 C41.8685542 48.1939458 44.01056654 45.90400187 44.3125 41.375 C44.02779347 36.73962181 41.94028384 34.55033661 38.6875 31.375 C35.62320224 29.84285112 33.0709358 30.14561452 29.6875 30.375 C25.5634538 32.15583813 23.36268859 34.18702852 21.6875 38.375 C21.70099206 41.88293563 22.10158815 45.20317629 23.6875 48.375 C24.26918761 55.58792639 24.26918761 55.58792639 22.10546875 58.515625 C19.04196066 60.87140828 16.45528536 61.42579695 12.6875 62.25 C-0.56373199 65.45207235 -13.27472091 71.99407385 -21.3125 83.375 C-22.22432001 86.31503504 -22.2103634 89.30646139 -22.3125 92.375 C-22.35246094 93.42042969 -22.39242187 94.46585937 -22.43359375 95.54296875 C-22.70443694 109.64274649 -22.3100526 123.569905 -12.1875 134.3125 C-11.70394043 134.82611084 -11.22038086 135.33972168 -10.72216797 135.86889648 C-5.10260695 141.76417932 0.58792872 147.30573353 7.6875 151.375 C8.3165625 150.78589844 8.945625 150.19679687 9.59375 149.58984375 C17.47047137 142.67398748 17.47047137 142.67398748 21.9375 142.8125 C26.22099466 143.9587873 28.13655732 146.73698055 30.3046875 150.4453125 C34.20179585 158.70189798 39.69581307 170.73928515 36.9296875 179.87890625 C29.98926358 193.82522979 9.21107925 200.62329963 -4.3125 206.375 C-16.16724921 211.42466966 -27.45983406 216.98877312 -38.60522461 223.47045898 C-40.3125 224.375 -40.3125 224.375 -43.3125 225.375 C-44.04273095 232.83758179 -44.04273095 232.83758179 -41.125 239.4375 C-36.39951622 242.69283327 -31.97492433 243.73467627 -26.3984375 244.71484375 C-23.90044433 245.50540713 -22.86216603 246.26706919 -21.3125 248.375 C-20.84375 250.49609375 -20.84375 250.49609375 -20.8125 252.8125 C-20.76609375 253.95525391 -20.76609375 253.95525391 -20.71875 255.12109375 C-21.65072372 258.65891503 -23.18463908 259.49439791 -26.3125 261.375 C-29.86404557 262.54695747 -33.48043157 263.35855675 -37.125 264.1875 C-51.25331178 267.64869734 -63.78405227 272.23321798 -75.3125 281.375 C-76.1375 281.99503906 -76.9625 282.61507813 -77.8125 283.25390625 C-91.6905944 295.02860197 -100.58496569 316.21959252 -102.1875 333.9375 C-102.81397551 349.19217871 -98.41630327 362.16317787 -89.3125 374.375 C-88.57 375.385625 -87.8275 376.39625 -87.0625 377.4375 C-75.61714006 390.59058032 -59.15174315 397.65074372 -42.625 401.8125 C-39.16219489 402.8336567 -38.45659995 403.19887784 -36.0625 406.125 C-35.11965804 410.2106485 -35.75510003 412.51858102 -37.3125 416.375 C-40.15293832 419.21543832 -42.35243813 419.07819865 -46.3125 419.375 C-61.91953394 417.07558781 -77.26601517 409.35040147 -89.3125 399.375 C-90.15039062 398.68792969 -90.98828125 398.00085938 -91.8515625 397.29296875 C-108.25664098 383.19882238 -117.9443381 366.09171672 -120.04150391 344.38842773 C-121.73569811 321.0238464 -113.588445 296.49250819 -98.359375 278.63671875 C-97.68390625 277.89035156 -97.0084375 277.14398438 -96.3125 276.375 C-95.63703125 275.61832031 -94.9615625 274.86164063 -94.265625 274.08203125 C-83.52211233 262.69155522 -70.70507917 256.06324361 -56.3125 250.375 C-56.58964844 249.83230469 -56.86679688 249.28960937 -57.15234375 248.73046875 C-57.51457031 248.01503906 -57.87679687 247.29960937 -58.25 246.5625 C-58.60964844 245.85480469 -58.96929687 245.14710938 -59.33984375 244.41796875 C-62.5558752 237.66301113 -62.34986479 228.8181709 -60.6640625 221.59765625 C-57.27407195 213.12267987 -49.58299726 208.58343526 -41.9375 204.1875 C-41.12949951 203.72045654 -40.32149902 203.25341309 -39.48901367 202.7722168 C-30.70183745 197.8283449 -21.49355633 193.91594418 -12.23828125 189.9453125 C-1.44733028 185.3065983 9.17940804 180.34760077 18.6875 173.375 C18.0275 171.395 17.3675 169.415 16.6875 167.375 C15.73875 167.725625 14.79 168.07625 13.8125 168.4375 C8.88186484 169.76155834 4.59616039 169.89886167 -0.3125 168.375 C-4.68309857 165.8141486 -8.48989096 162.67678461 -12.3125 159.375 C-12.82103516 158.94864258 -13.32957031 158.52228516 -13.85351562 158.08300781 C-21.8515202 151.35025301 -28.3188362 143.95037478 -34.3125 135.375 C-34.86421875 134.58867187 -35.4159375 133.80234375 -35.984375 132.9921875 C-37.72473567 129.56265324 -38.39905945 126.13603056 -39 122.375 C-39.1252002 121.59535889 -39.25040039 120.81571777 -39.37939453 120.01245117 C-41.54942382 105.08058298 -42.62334062 86.34087004 -35.625 72.4375 C-26.88306806 60.86034689 -15.17031118 53.2210779 -1.9921875 47.56640625 C0.8299202 46.40198635 0.8299202 46.40198635 3.6875 44.375 C3.6875 42.46858947 3.67886162 40.56153222 3.61328125 38.65625 C3.84528002 31.52534058 7.29158316 25.75999813 11.6875 20.375 C12.6775 19.715 13.6675 19.055 14.6875 18.375 C-34.92019945 12.82972846 -85.80516346 31.10657852 -124.33984375 61.78515625 C-165.72186984 95.50666028 -191.79953263 144.25200328 -197.3125 197.375 C-200.38068627 229.2424463 -195.94608276 262.21247381 -183.1953125 291.68359375 C-181.77968354 295.99938292 -181.71465268 299.17930536 -183.75 303.25 C-187.00079879 305.94578436 -188.9887982 305.93437722 -193.09375 305.94140625 C-196.25506732 305.13437982 -197.30500856 303.95547989 -199.3125 301.375 C-200.6658668 298.70198691 -201.68625243 295.94632682 -202.6875 293.125 C-202.98495117 292.29726074 -203.28240234 291.46952148 -203.58886719 290.61669922 C-207.26236698 280.06270697 -209.95291319 269.28948686 -212.3125 258.375 C-212.49329102 257.570625 -212.67408203 256.76625 -212.86035156 255.9375 C-220.32150327 221.28690282 -216.48884748 181.69232059 -205.3125 148.375 C-205.02922852 147.52663574 -204.74595703 146.67827148 -204.45410156 145.80419922 C-197.5948572 125.70775014 -187.8939762 106.50648951 -175.3125 89.375 C-174.89178223 88.80023926 -174.47106445 88.22547852 -174.03759766 87.63330078 C-140.85393456 42.82724986 -90.67100762 11.07350027 -35.3125 2.375 C-34.26747314 2.20129883 -33.22244629 2.02759766 -32.14575195 1.84863281 C-21.41594906 0.22055264 -10.83509652 -0.02410423 0 0 Z M57.6875 25.375 C58.1825 26.591875 58.6775 27.80875 59.1875 29.0625 C62.14445314 38.06069234 61.61345423 46.75490945 57.7578125 55.3515625 C56.6875 57.375 56.6875 57.375 54.6875 60.375 C55.13480469 61.02984375 55.58210938 61.6846875 56.04296875 62.359375 C64.923707 75.76569202 68.45553258 88.26548201 69.5625 104.125 C70.89330066 120.19687366 74.90823702 135.75775337 85.6875 148.25 C106.18072245 172.59563054 103.74004426 211.5301236 101.375 240.95703125 C99.57788915 261.40184141 96.07516952 281.66830953 92.70605469 301.90209961 C87.90919027 330.75782587 86.2371437 361.4742874 99.6875 388.375 C105.20524293 386.91569084 109.19321323 384.23141325 113.75 380.9375 C114.49950928 380.39963867 115.24901855 379.86177734 116.02124023 379.30761719 C145.24154408 358.09837799 167.42127377 331.05452969 182.6875 298.375 C183.22117187 297.24835938 183.75484375 296.12171875 184.3046875 294.9609375 C193.64183388 274.30310586 199.75695762 250.49397397 199.890625 227.765625 C199.90121445 226.56507477 199.90121445 226.56507477 199.91201782 225.340271 C200.20214623 201.19075923 200.20214623 201.19075923 196.6875 177.375 C196.48350586 176.46975586 196.27951172 175.56451172 196.06933594 174.63183594 C184.13511935 122.67369649 153.17681936 76.62238911 107.90185547 47.96704102 C92.99002075 38.768265 75.23890938 28.10983499 57.6875 25.375 Z " fill="#000000" transform="translate(255.3125,39.625)"/>
</svg>
